<?xml version="1.0" encoding="UTF-8"?><svg id="_レイヤー_2" xmlns="http://www.w3.org/2000/svg" viewBox="0 0 25.06 29.39"><defs><style>.cls-1{fill:#d19f78;}.cls-1,.cls-2{stroke-width:0px;}.cls-2{fill:#cd814b;}</style></defs><g id="_レイヤー_1-2"><path class="cls-1" d="M22.16,0c-1.58,0-2.9,1.32-2.9,2.9s1.32,2.9,2.9,2.9,2.9-1.29,2.9-2.9-1.29-2.9-2.9-2.9ZM22.16,4.19c-.69,0-1.29-.59-1.29-1.29s.59-1.29,1.29-1.29,1.29.56,1.29,1.29-.56,1.29-1.29,1.29Z"/><path class="cls-1" d="M14.77,8.14l3.87-3.52c-.4-.51-1.01-.83-1.7-.83H2.18c-1.19,0-2.18.96-2.18,2.18s.99,2.18,2.18,2.18h12.59Z"/><path class="cls-2" d="M19.12,5.7h-.03c-.05-.41-.21-.78-.45-1.08l-3.87,3.52c.1,3.5.1,4.65-.86,6.33-.95,1.64-8.54,9.8-9.85,11.32-.74.87-.7,2.15.11,2.96.91.91,2.42.83,3.23-.17,1.42-1.76,9.23-10.3,10.26-12.1,1.58-3.07,1.45-5.57,1.45-10.78Z"/></g></svg>